<?xml version="1.0" encoding="utf-8"?>
<!-- Generator: Adobe Illustrator 15.0.0, SVG Export Plug-In . SVG Version: 6.00 Build 0)  -->
<!DOCTYPE svg PUBLIC "-//W3C//DTD SVG 1.1//EN" "http://www.w3.org/Graphics/SVG/1.1/DTD/svg11.dtd">
<svg version="1.1" id="Layer_1" xmlns="http://www.w3.org/2000/svg" xmlns:xlink="http://www.w3.org/1999/xlink" x="0px" y="0px"
	 width="100px" height="100px" viewBox="0 0 100 100" enable-background="new 0 0 100 100" xml:space="preserve">
<g id="Layer_1_1_" display="none">
	<path id="Shape_1_" display="inline" fill="none" stroke="#1874B6" stroke-width="0.25" stroke-miterlimit="10" d="M21.875,90.74
		l-6.259-70.193h68.766l-6.264,70.182l-28.161,7.809L21.875,90.74z"/>
</g>
<g id="Page_1_1_">
	<g id="Layer_1_2_">
		<path id="Shape_15_" fill="#171617" d="M69.505,5.06h-5.707l5.937,6.44v3.065H57.507v-3.59h5.937l-5.937-6.44v-3.07h11.998V5.06
			L69.505,5.06z M55.085,5.06h-5.708l5.938,6.44v3.065H43.087v-3.59h5.935l-5.935-6.44v-3.07h11.998V5.06L55.085,5.06z
			 M40.804,5.205h-6.158v5.621h6.158v3.739H30.269v-13.1h10.536L40.804,5.205L40.804,5.205z"/>
		<path id="Shape_14_" fill="#1874B6" d="M21.876,90.74l-6.259-70.194h68.766l-6.264,70.183l-28.161,7.807L21.876,90.74z"/>
		<path id="Shape_13_" fill="#37A9DA" d="M50.001,92.566l22.755-6.31l5.354-59.973H50.001V92.566z"/>
		<g id="Group_1_" transform="translate(55.000000, 142.000000)">
			<path id="Shape_12_" fill="#FFFFFF" d="M-4.999-90.285H6.395L7.18-99.1H-4.999v-8.608h0.029h21.557l-0.205,2.31l-2.114,23.725
				H-4.999V-90.285z"/>
			<path id="Shape_11_" fill="#EBEBEB" d="M-4.948-67.926l-0.037,0.01l-9.588-2.59l-0.613-6.865h-4.658h-3.983l1.206,13.52
				l17.636,4.896l0.039-0.012v-8.957L-4.948-67.926L-4.948-67.926z"/>
			<path id="Shape_10_" fill="#FFFFFF" d="M5.661-82.039L4.624-70.512l-9.602,2.594v8.955l17.648-4.891l0.129-1.455l1.5-16.73H5.661
				z"/>
			<path id="Shape_9_" fill="#EBEBEB" d="M-4.97-107.708v5.346v3.241v0.021h-20.767h-0.027l-0.173-1.936l-0.392-4.363l-0.206-2.31
				L-4.97-107.708L-4.97-107.708z"/>
			<path id="Shape_8_" fill="#EBEBEB" d="M-4.999-90.283v5.348v3.242v0.021h-9.439h-0.028l-0.172-1.935l-0.393-4.365l-0.206-2.311
				H-4.999z"/>
		</g>
	</g>
</g>
</svg>
