<?xml version="1.0" encoding="utf-8"?>
<!-- Generator: Adobe Illustrator 15.0.0, SVG Export Plug-In . SVG Version: 6.00 Build 0)  -->
<!DOCTYPE svg PUBLIC "-//W3C//DTD SVG 1.1//EN" "http://www.w3.org/Graphics/SVG/1.1/DTD/svg11.dtd">
<svg version="1.1" id="Layer_1" xmlns="http://www.w3.org/2000/svg" xmlns:xlink="http://www.w3.org/1999/xlink" x="0px" y="0px"
	 width="100px" height="100px" viewBox="0 0 100 100" enable-background="new 0 0 100 100" xml:space="preserve">
<g>
	<path fill="#50B2E4" d="M49.999,13.324c4.116,6.879,9.009,11.996,14.103,17.317c3.385,3.537,6.881,7.194,10.332,11.583l0.021,0.027
		l0.021,0.027c4.844,5.995,7.299,13.557,6.912,21.294C81,71.364,77.743,78.695,72.223,84.215
		c-5.936,5.936-13.828,9.204-22.221,9.204c-8.395,0-16.287-3.271-22.223-9.204c-5.521-5.521-8.776-12.852-9.165-20.642
		c-0.387-7.737,2.067-15.299,6.91-21.294l0.021-0.027l0.021-0.027c3.45-4.389,6.948-8.047,10.333-11.584
		C40.989,25.317,45.885,20.203,49.999,13.324 M49.999,1.381c-6.547,17.265-17.541,23.662-28.521,37.63
		C9.86,53.395,10.733,74.523,24.102,87.893c7.151,7.151,16.525,10.728,25.897,10.728c9.375,0,18.747-3.575,25.899-10.728
		c13.367-13.367,14.24-34.496,2.621-48.882C67.54,25.041,56.547,18.645,49.999,1.381L49.999,1.381z"/>
</g>
<g>
	<path fill="none" stroke="#4BB3E6" stroke-width="0.25" stroke-miterlimit="10" d="M50,1.381
		c-6.547,17.265-17.541,23.662-28.521,37.63C9.86,53.395,10.733,74.523,24.102,87.893C31.253,95.044,40.627,98.619,50,98.619
		c9.375,0,18.747-3.575,25.898-10.729c13.369-13.367,14.242-34.496,2.623-48.881C67.54,25.041,56.547,18.645,50,1.381L50,1.381z"/>
</g>
</svg>
