<?xml version="1.0" encoding="utf-8"?>
<!-- Generator: Adobe Illustrator 15.0.0, SVG Export Plug-In . SVG Version: 6.00 Build 0)  -->
<!DOCTYPE svg PUBLIC "-//W3C//DTD SVG 1.1//EN" "http://www.w3.org/Graphics/SVG/1.1/DTD/svg11.dtd">
<svg version="1.1" id="Layer_1" xmlns="http://www.w3.org/2000/svg" xmlns:xlink="http://www.w3.org/1999/xlink" x="0px" y="0px"
	 width="100px" height="100px" viewBox="0 0 100 100" enable-background="new 0 0 100 100" xml:space="preserve">
<g id="Layer_1_1_" display="none">
	<path id="Shape_1_" display="inline" fill="none" stroke="#E45325" stroke-width="0.25" stroke-miterlimit="10" d="M21.875,90.74
		l-6.259-70.193h68.766l-6.264,70.182l-28.161,7.81L21.875,90.74z"/>
</g>
<g>
	<polygon fill="#E45325" points="22.041,90.495 15.82,20.717 84.18,20.717 77.953,90.484 49.958,98.245 	"/>
	<polygon fill="#F1692D" points="50,92.312 72.621,86.042 77.941,26.423 50,26.423 	"/>
	<polygon fill="#EBEBEB" points="50,52.305 38.677,52.305 37.894,43.539 50,43.539 50,34.981 49.971,34.981 28.542,34.981 
		28.747,37.276 30.85,60.859 50,60.859 	"/>
	<polygon fill="#EBEBEB" points="50,74.527 49.963,74.539 40.433,71.965 39.823,65.139 35.19,65.139 31.231,65.139 32.432,78.576 
		49.961,83.443 50,83.434 	"/>
	<path fill="#030303" d="M22.181,1.755h4.349v4.296h3.978V1.755h4.349v13.012h-4.349V10.41H26.53v4.357h-4.349V1.755L22.181,1.755z"
		/>
	<path fill="#030303" d="M40.576,6.069h-3.828V1.755h12.007v4.314h-3.83v8.698h-4.349V6.069L40.576,6.069z"/>
	<path fill="#030303" d="M50.661,1.755h4.537l2.788,4.573l2.785-4.573h4.539v13.012h-4.334v-6.45l-2.99,4.626h-0.073l-2.996-4.626
		v6.45h-4.253V1.755H50.661z"/>
	<path fill="#030303" d="M67.475,1.755h4.351v8.711h6.114v4.301H67.475V1.755z"/>
	<polygon fill="#FFFFFF" points="49.971,52.305 49.971,60.859 60.508,60.859 59.516,71.959 49.971,74.535 49.971,83.438 
		67.518,78.576 67.645,77.129 69.654,54.6 69.863,52.305 67.557,52.305 	"/>
	<polygon fill="#FFFFFF" points="49.971,34.981 49.971,40.295 49.971,43.519 49.971,43.539 70.615,43.539 70.615,43.539 
		70.641,43.539 70.812,41.616 71.203,37.276 71.408,34.981 	"/>
</g>
</svg>
