<?xml version="1.0" encoding="utf-8"?>
<!-- Generator: Adobe Illustrator 15.0.0, SVG Export Plug-In . SVG Version: 6.00 Build 0)  -->
<!DOCTYPE svg PUBLIC "-//W3C//DTD SVG 1.1//EN" "http://www.w3.org/Graphics/SVG/1.1/DTD/svg11.dtd">
<svg version="1.1" id="Layer_1" xmlns="http://www.w3.org/2000/svg" xmlns:xlink="http://www.w3.org/1999/xlink" x="0px" y="0px"
	 width="200px" height="200px" viewBox="0 0 200 200" enable-background="new 0 0 200 200" xml:space="preserve">
<g id="text">
</g>
<path fill="#010101" d="M132.01,79.151"/>
<g>
	<path fill="#5D87A1" d="M51.37,156.528h-7.446c-0.262-12.454-0.988-24.166-2.174-35.138h-0.065l-11.336,35.138h-5.669
		l-11.268-35.138h-0.066c-0.835,10.537-1.361,22.249-1.58,35.138H4.976c0.438-15.676,1.536-30.37,3.294-44.088h9.228l10.743,32.396
		h0.065l10.808-32.396h8.83C49.877,128.506,51.019,143.204,51.37,156.528"/>
	<path fill="#5D87A1" d="M83.661,124.003c-3.032,16.302-7.03,28.15-11.994,35.542c-3.869,5.695-8.105,8.543-12.719,8.543
		c-1.231,0-2.747-0.367-4.546-1.097v-3.931c0.879,0.128,1.911,0.196,3.098,0.196c2.151,0,3.887-0.59,5.207-1.767
		c1.581-1.435,2.371-3.045,2.371-4.832c0-1.221-0.617-3.721-1.845-7.508l-8.171-25.147h7.315l5.864,18.806
		c1.317,4.27,1.867,7.252,1.647,8.952c3.208-8.491,5.448-17.744,6.724-27.758H83.661z"/>
	<polygon fill="#F8971D" points="182.777,156.528 161.623,156.528 161.623,112.44 168.741,112.44 168.741,151.105 182.777,151.105 	
		"/>
	<path fill-rule="evenodd" clip-rule="evenodd" fill="#F8971D" d="M156.088,157.592l-8.177-3.995c0.728-0.593,1.42-1.23,2.046-1.971
		c3.471-4.045,5.208-10.032,5.208-17.958c0-14.584-5.777-21.882-17.331-21.882c-5.668,0-10.084,1.85-13.248,5.554
		c-3.473,4.05-5.206,10.014-5.206,17.896c0,7.751,1.536,13.436,4.612,17.048c2.812,3.264,7.052,4.897,12.72,4.897
		c2.117,0,4.061-0.258,5.824-0.774l10.649,6.141L156.088,157.592z M129.596,147.708c-1.803-2.872-2.703-7.484-2.703-13.843
		c0-11.104,3.405-16.657,10.214-16.657c3.561,0,6.173,1.328,7.845,3.982c1.799,2.876,2.7,7.447,2.7,13.717
		c0,11.19-3.405,16.788-10.214,16.788C133.88,151.695,131.265,150.369,129.596,147.708"/>
	<path fill="#F8971D" d="M116.278,144.309c0,3.739-1.388,6.809-4.15,9.21c-2.766,2.391-6.48,3.59-11.134,3.59
		c-4.35,0-8.568-1.38-12.652-4.116l1.911-3.787c3.516,1.741,6.697,2.61,9.553,2.61c2.68,0,4.775-0.591,6.293-1.758
		c1.515-1.177,2.422-2.815,2.422-4.896c0-2.62-1.843-4.856-5.223-6.733c-3.121-1.696-9.356-5.239-9.356-5.239
		c-3.379-2.442-5.073-5.063-5.073-9.382c0-3.572,1.263-6.459,3.787-8.654c2.528-2.201,5.792-3.303,9.787-3.303
		c4.13,0,7.884,1.095,11.268,3.27l-1.719,3.783c-2.894-1.215-5.747-1.825-8.562-1.825c-2.283,0-4.042,0.543-5.269,1.636
		c-1.234,1.083-1.996,2.478-1.996,4.177c0,2.611,1.882,4.877,5.356,6.788c3.161,1.701,9.549,5.311,9.549,5.311
		C114.546,137.428,116.278,140.026,116.278,144.309"/>
	<path fill-rule="evenodd" clip-rule="evenodd" fill="#5D87A1" d="M191.708,97.672c-4.301-0.107-7.632,0.319-10.427,1.492
		c-0.807,0.319-2.094,0.319-2.206,1.332c0.434,0.425,0.485,1.116,0.864,1.706c0.645,1.064,1.77,2.501,2.794,3.248
		c1.129,0.853,2.258,1.702,3.441,2.448c2.096,1.283,4.461,2.025,6.501,3.305c1.186,0.744,2.363,1.704,3.55,2.505
		c0.59,0.426,0.963,1.119,1.718,1.382v-0.161c-0.378-0.478-0.483-1.171-0.857-1.705c-0.537-0.529-1.075-1.012-1.614-1.542
		c-1.561-2.077-3.496-3.887-5.589-5.379c-1.722-1.174-5.486-2.772-6.182-4.738c0,0-0.056-0.057-0.11-0.108
		c1.184-0.108,2.584-0.535,3.711-0.857c1.825-0.479,3.491-0.372,5.374-0.849c0.859-0.214,1.721-0.482,2.584-0.745v-0.482
		c-0.973-0.958-1.668-2.237-2.689-3.143c-2.738-2.343-5.752-4.632-8.869-6.552c-1.668-1.066-3.818-1.755-5.593-2.663
		c-0.642-0.32-1.716-0.479-2.094-1.015c-0.969-1.171-1.508-2.714-2.204-4.101c-1.558-2.927-3.066-6.174-4.407-9.27
		c-0.967-2.076-1.561-4.152-2.74-6.071c-5.54-9.058-11.558-14.541-20.804-19.922c-1.989-1.121-4.353-1.599-6.878-2.186
		c-1.346-0.056-2.688-0.159-4.03-0.211c-0.863-0.375-1.724-1.387-2.476-1.867c-3.064-1.917-10.963-6.07-13.222-0.584
		c-1.451,3.464,2.15,6.873,3.387,8.63c0.913,1.224,2.097,2.611,2.739,3.995c0.376,0.906,0.484,1.866,0.862,2.824
		c0.859,2.343,1.665,4.954,2.795,7.14c0.591,1.119,1.232,2.292,1.985,3.299c0.436,0.59,1.186,0.853,1.347,1.815
		c-0.749,1.063-0.81,2.662-1.237,3.995c-1.935,6.02-1.183,13.478,1.56,17.898c0.857,1.331,2.901,4.262,5.645,3.141
		c2.418-0.958,1.881-3.994,2.579-6.656c0.16-0.644,0.053-1.066,0.375-1.492v0.108c0.752,1.489,1.506,2.923,2.205,4.42
		c1.667,2.607,4.567,5.325,6.989,7.134c1.287,0.962,2.307,2.611,3.921,3.199v-0.162h-0.107c-0.323-0.477-0.804-0.691-1.235-1.063
		c-0.969-0.959-2.041-2.132-2.797-3.197c-2.256-2.982-4.248-6.286-6.018-9.696c-0.861-1.654-1.612-3.465-2.312-5.115
		c-0.321-0.636-0.321-1.598-0.86-1.916c-0.809,1.17-1.986,2.184-2.578,3.618c-1.021,2.292-1.127,5.116-1.506,8.047
		c-0.215,0.056-0.108,0-0.215,0.106c-1.72-0.426-2.311-2.183-2.956-3.67c-1.612-3.787-1.885-9.859-0.484-14.227
		c0.375-1.117,1.993-4.632,1.344-5.698c-0.324-1.016-1.398-1.596-1.988-2.399c-0.698-1.012-1.455-2.288-1.934-3.409
		c-1.291-2.981-1.939-6.286-3.332-9.269c-0.647-1.386-1.776-2.826-2.688-4.102c-1.023-1.438-2.149-2.45-2.957-4.152
		c-0.268-0.587-0.645-1.546-0.216-2.184c0.106-0.427,0.324-0.587,0.755-0.695c0.695-0.585,2.687,0.159,3.384,0.479
		c1.988,0.796,3.655,1.546,5.319,2.663c0.755,0.534,1.562,1.545,2.526,1.814h1.131c1.719,0.37,3.656,0.104,5.27,0.584
		c2.847,0.904,5.427,2.237,7.738,3.675c7.04,4.422,12.845,10.71,16.768,18.219c0.646,1.224,0.918,2.344,1.507,3.619
		c1.129,2.616,2.528,5.279,3.655,7.833c1.127,2.504,2.205,5.058,3.82,7.139c0.802,1.117,4.029,1.703,5.48,2.29
		c1.072,0.478,2.741,0.905,3.709,1.49c1.828,1.117,3.652,2.397,5.374,3.625C188.859,95.275,191.547,96.605,191.708,97.672"/>
	<path fill-rule="evenodd" clip-rule="evenodd" fill="#5D87A1" d="M136.883,51.379c-0.912,0-1.553,0.109-2.203,0.268v0.107h0.105
		c0.434,0.85,1.186,1.439,1.72,2.185c0.434,0.853,0.809,1.701,1.24,2.554c0.052-0.051,0.104-0.107,0.104-0.107
		c0.757-0.53,1.133-1.382,1.133-2.663c-0.323-0.375-0.376-0.745-0.646-1.119C138.014,52.072,137.313,51.806,136.883,51.379"/>
	<path fill="#F8971D" d="M196.832,156.524h1.111v-5.401h-1.671l-1.361,3.682l-1.481-3.682h-1.612v5.401h1.052v-4.112h0.061
		l1.553,4.112h0.801l1.549-4.112V156.524z M187.857,156.524h1.181v-4.486h1.542v-0.915h-4.326v0.915h1.604V156.524z"/>
</g>
</svg>
