<?xml version="1.0" encoding="utf-8"?>
<!-- Generator: Adobe Illustrator 15.0.0, SVG Export Plug-In . SVG Version: 6.00 Build 0)  -->
<!DOCTYPE svg PUBLIC "-//W3C//DTD SVG 1.1//EN" "http://www.w3.org/Graphics/SVG/1.1/DTD/svg11.dtd">
<svg version="1.1" id="Layer_1" xmlns="http://www.w3.org/2000/svg" xmlns:xlink="http://www.w3.org/1999/xlink" x="0px" y="0px"
	 width="200px" height="200px" viewBox="0 0 200 200" enable-background="new 0 0 200 200" xml:space="preserve">
<g id="g236" transform="translate(0,-0.00800014)">
	<g>
		<defs>
			<rect id="SVGID_1_" x="7.643" y="1.174" width="180.995" height="196.572"/>
		</defs>
		<clipPath id="SVGID_2_">
			<use xlink:href="#SVGID_1_"  overflow="visible"/>
		</clipPath>
		<path id="path244" inkscape:connector-curvature="0" clip-path="url(#SVGID_2_)" fill="#1D427C" d="M188.638,90.071
			c0-21.367-11.409-42.43-31.663-55.37l-7.759,7.167c13.84,10.135,21.985,25.286,21.985,42.481c0,40.125-42.6,76.473-90.005,76.473
			c-4.864,0-9.639-0.416-14.245-1.211l-16,13.782c10.102,3.978,21.371,6.088,33.154,6.088
			C140.38,179.48,188.638,135.255,188.638,90.071"/>
	</g>
	<g>
		<defs>
			<rect id="SVGID_3_" x="7.643" y="1.174" width="180.995" height="196.572"/>
		</defs>
		<clipPath id="SVGID_4_">
			<use xlink:href="#SVGID_3_"  overflow="visible"/>
		</clipPath>
		<path id="path246" inkscape:connector-curvature="0" clip-path="url(#SVGID_4_)" fill="#1D427C" d="M117.06,104.99l-28.951,6.594
			l64.216-61.429l-29.897,4.664l58.109-53.65l-67.646,20.722c-0.892-0.021-1.791-0.038-2.69-0.038
			c-55.439,0-102.558,43.857-102.558,90.13c0,22.71,10.504,40.768,26.788,52.472l-25,33.287L117.06,104.99z M15.372,105.143
			c0-41.493,44.606-76.473,90.006-76.473c0.315,0,0.62,0.009,0.935,0.013L62.421,85.845l25.238-4.648l-49.727,55.979l20.167-4.236
			L44.013,151.7C26.893,142.265,15.372,125.988,15.372,105.143"/>
	</g>
</g>
</svg>
