<?xml version="1.0" encoding="UTF-8" standalone="no"?>
<svg
   xmlns:dc="http://purl.org/dc/elements/1.1/"
   xmlns:cc="http://web.resource.org/cc/"
   xmlns:rdf="http://www.w3.org/1999/02/22-rdf-syntax-ns#"
   xmlns:svg="http://www.w3.org/2000/svg"
   xmlns="http://www.w3.org/2000/svg"
   xmlns:sodipodi="http://sodipodi.sourceforge.net/DTD/sodipodi-0.dtd"
   xmlns:inkscape="http://www.inkscape.org/namespaces/inkscape"
   version="1.1"
   id="Layer_3"
   width="552.96"
   height="290.879"
   viewBox="0 0 552.96 290.879"
   overflow="visible"
   enable-background="new 0 0 552.96 290.879"
   xml:space="preserve"
   sodipodi:version="0.32"
   inkscape:version="0.44.1"
   sodipodi:docname="s.svg"
   sodipodi:docbase="D:\Download"><metadata
   id="metadata31"><rdf:RDF><cc:Work
       rdf:about=""><dc:format>image/svg+xml</dc:format><dc:type
         rdf:resource="http://purl.org/dc/dcmitype/StillImage" /></cc:Work></rdf:RDF></metadata><defs
   id="defs29" /><sodipodi:namedview
   inkscape:window-height="744"
   inkscape:window-width="1280"
   inkscape:pageshadow="2"
   inkscape:pageopacity="0.0"
   guidetolerance="10.0"
   gridtolerance="10.0"
   objecttolerance="10.0"
   borderopacity="1.0"
   bordercolor="#666666"
   pagecolor="#ffffff"
   id="base"
   inkscape:zoom="1.2960716"
   inkscape:cx="276.48001"
   inkscape:cy="145.4395"
   inkscape:window-x="-4"
   inkscape:window-y="-4"
   inkscape:current-layer="Layer_3" />
<radialGradient
   id="XMLID_2_"
   cx="139.48"
   cy="60.4395"
   r="363.0565"
   gradientTransform="matrix(1 0 0 1 26.5198 -9.3071)"
   gradientUnits="userSpaceOnUse">
	<stop
   offset="0"
   style="stop-color:#FFFFFF"
   id="stop4" />
	<stop
   offset="0.5"
   style="stop-color:#4C6B97"
   id="stop6" />
	<stop
   offset="1"
   style="stop-color:#000000"
   id="stop8" />
</radialGradient>
<ellipse
   fill="url(#XMLID_2_)"
   cx="276.48"
   cy="145.439"
   rx="276.48"
   ry="145.439"
   id="ellipse10" />
<ellipse
   fill="#6181B6"
   cx="276.48"
   cy="145.439"
   rx="265.68"
   ry="134.641"
   id="ellipse12" />
<g
   id="g14">
	<path
   fill="#FFFFFF"
   d="M330.298,188.957c0,0,13.18-67.825,13.18-67.825c2.973-15.309,0.5-26.729-7.351-33.943   c-7.603-6.982-20.511-10.376-39.461-10.376h-22.822l6.532-33.606c0.246-1.267-0.087-2.577-0.907-3.572   c-0.821-0.995-2.044-1.572-3.334-1.572h-31.5c-2.068,0-3.846,1.465-4.241,3.496l-13.995,72.006   c-1.273-8.102-4.408-15.068-9.427-20.813c-9.239-10.576-23.854-15.938-43.441-15.938h-61.055c-2.068,0-3.846,1.465-4.24,3.496   l-28.328,145.75c-0.246,1.267,0.086,2.576,0.907,3.571c0.82,0.995,2.043,1.572,3.333,1.572h31.75c2.068,0,3.846-1.466,4.24-3.495   l6.852-35.255h23.634c12.404,0,22.82-1.344,30.957-3.993c8.318-2.704,15.972-7.291,22.721-13.607   c5.451-5.01,9.957-10.617,13.424-16.668l-5.661,29.125c-0.246,1.267,0.086,2.576,0.907,3.571s2.043,1.572,3.333,1.572h31.5   c2.068,0,3.846-1.466,4.241-3.495l15.547-80.005h21.614c9.21,0,11.906,1.834,12.639,2.623c0.667,0.719,2.052,3.254,0.5,11.245   l-12.532,64.488c-0.246,1.267,0.087,2.576,0.908,3.571c0.82,0.995,2.043,1.572,3.333,1.572h32   C328.125,192.452,329.903,190.986,330.298,188.957z M184.26,132.917c-1.979,10.167-5.707,17.419-11.083,21.558   c-5.461,4.205-14.198,6.338-25.966,6.338H133.14l10.176-52.36h18.192c13.366,0,18.751,2.857,20.913,5.253   C185.418,117.028,186.054,123.672,184.26,132.917z"
   id="path16" />
	<path
   fill="#FFFFFF"
   d="M465.004,92.751c-9.239-10.576-23.855-15.938-43.44-15.938h-61.055c-2.069,0-3.847,1.465-4.241,3.496   l-28.328,145.75c-0.246,1.267,0.087,2.576,0.907,3.571s2.043,1.572,3.334,1.572h31.75c2.067,0,3.846-1.466,4.239-3.495   l6.853-35.255h23.634c12.404,0,22.82-1.344,30.957-3.993c8.318-2.704,15.973-7.291,22.721-13.607   c5.628-5.173,10.261-10.979,13.77-17.257c3.503-6.271,6.021-13.27,7.485-20.802C477.2,118.223,474.311,103.405,465.004,92.751z    M432.076,132.917c-1.979,10.167-5.707,17.419-11.082,21.558c-5.462,4.205-14.198,6.338-25.966,6.338h-14.073l10.177-52.36h18.192   c13.366,0,18.751,2.857,20.913,5.253C433.234,117.028,433.87,123.672,432.076,132.917z"
   id="path18" />
</g>
<g
   id="g20">
	<path
   d="M161.508,104.132c12.063,0,20.102,2.227,24.121,6.68c4.016,4.453,4.973,12.098,2.871,22.93   c-2.195,11.281-6.422,19.333-12.688,24.157s-15.801,7.234-28.602,7.234h-19.313l11.855-61H161.508z M84.149,226.883h31.75   l7.531-38.75h27.195c12,0,21.871-1.258,29.621-3.782c7.75-2.519,14.793-6.746,21.133-12.68c5.32-4.89,9.625-10.284,12.922-16.184   c3.293-5.894,5.633-12.402,7.016-19.519c3.359-17.277,0.824-30.734-7.598-40.375s-21.82-14.461-40.188-14.461h-61.055   L84.149,226.883z"
   id="path22" />
	<path
   d="M244.635,42.382h31.5l-7.531,38.75h28.063c17.656,0,29.836,3.082,36.539,9.238c6.703,6.16,8.711,16.141,6.031,29.938   l-13.18,67.825h-32l12.531-64.489c1.426-7.336,0.902-12.34-1.574-15.008s-7.746-4.004-15.805-4.004h-25.176l-16.227,83.5h-31.5   L244.635,42.382z"
   id="path24" />
	<path
   d="M409.324,104.132c12.063,0,20.102,2.227,24.121,6.68c4.017,4.453,4.973,12.098,2.871,22.93   c-2.195,11.281-6.421,19.333-12.688,24.157c-6.266,4.824-15.801,7.234-28.601,7.234h-19.313l11.854-61H409.324z M331.965,226.883   h31.75l7.53-38.75h27.195c12,0,21.871-1.258,29.621-3.782c7.75-2.519,14.793-6.746,21.133-12.68   c5.32-4.89,9.625-10.284,12.922-16.184c3.293-5.894,5.633-12.402,7.016-19.519c3.359-17.277,0.825-30.734-7.598-40.375   c-8.422-9.641-21.819-14.461-40.188-14.461h-61.055L331.965,226.883z"
   id="path26" />
</g>
</svg>