<?xml version="1.0" encoding="utf-8"?>
<!-- Generator: Adobe Illustrator 15.0.0, SVG Export Plug-In . SVG Version: 6.00 Build 0)  -->
<!DOCTYPE svg PUBLIC "-//W3C//DTD SVG 1.1//EN" "http://www.w3.org/Graphics/SVG/1.1/DTD/svg11.dtd">
<svg version="1.1" id="Layer_1" xmlns="http://www.w3.org/2000/svg" xmlns:xlink="http://www.w3.org/1999/xlink" x="0px" y="0px"
	 width="100px" height="100px" viewBox="0 0 100 100" enable-background="new 0 0 100 100" xml:space="preserve">
<g display="none">
	<path display="inline" fill="none" stroke="#000000" stroke-width="0.25" stroke-miterlimit="10" d="M1.38,86.713h19.542V53.84
		H1.38V86.713z"/>
	<polyline display="inline" fill="none" stroke="#000000" stroke-width="0.25" stroke-miterlimit="10" points="62.126,50.255 
		88.59,50.255 88.59,4.102 14.174,4.102 14.174,27.483 	"/>
	<path display="inline" fill="none" stroke="#000000" stroke-width="0.25" stroke-miterlimit="10" d="M70.633,53.912v41.986H98.62
		V53.912H70.633z"/>
	<polyline display="inline" fill="none" stroke="#000000" stroke-width="0.25" stroke-miterlimit="10" points="23.248,63.407 
		59.805,63.407 59.805,30.212 9.463,30.212 9.463,51.627 	"/>
	<path display="inline" fill="#020202" d="M66.167,42.263"/>
</g>
<g>
	<path fill="#020202" d="M35.347,64.95h-1.435H23.248v5.354h43.793v-4.994L59.8,64.949L35.347,64.95L35.347,64.95z M41.75,68.232
		H26.66v-0.998h15.09V68.232z"/>
	<path fill="#020202" d="M1.38,86.713h19.542V53.84H1.38V86.713z M11.399,85.292c-0.622,0-1.127-0.507-1.127-1.126
		c0-0.625,0.507-1.127,1.127-1.127c0.621,0,1.126,0.502,1.126,1.127C12.527,84.785,12.021,85.292,11.399,85.292z M11.588,55.203
		c0.259,0,0.47,0.207,0.47,0.466c0,0.263-0.212,0.474-0.47,0.474c-0.259,0-0.472-0.213-0.472-0.474
		C11.114,55.41,11.326,55.203,11.588,55.203z M8.775,56.777h5.617v0.453H8.775V56.777z M4.517,58.846l13.271-0.006v22.583
		c-5.076,0.026-10.755,0.048-13.271,0.026V58.846z"/>
	<polygon fill="#020202" points="19.617,8.696 83.145,8.696 83.032,44.574 62.126,44.448 62.126,50.255 88.59,50.255 88.59,4.102 
		14.174,4.102 14.174,27.483 19.617,27.483 	"/>
	<polygon fill="#020202" points="62.126,60.907 70.633,60.907 70.633,58.768 67.993,58.768 67.993,56.18 70.633,56.18 
		70.633,50.255 62.126,50.255 	"/>
	<path fill="#020202" d="M70.633,53.912v41.986H98.62V53.912H70.633z M85.217,93.791c-0.744,0-1.347-0.605-1.347-1.35
		c0-0.748,0.603-1.35,1.347-1.35c0.746,0,1.35,0.602,1.35,1.35C86.564,93.186,85.963,93.791,85.217,93.791z M94.577,88.936H74.682
		V57.956h19.896L94.577,88.936L94.577,88.936z"/>
	<polygon fill="#020202" points="13.235,33.982 56.031,33.982 56.031,59.635 23.248,59.635 23.248,63.407 59.805,63.407 
		59.805,30.212 9.463,30.212 9.463,51.627 13.235,51.627 	"/>
	<path fill="#020202" d="M66.167,42.263"/>
</g>
</svg>
