<?xml version="1.0" encoding="utf-8"?>
<!-- Generator: Adobe Illustrator 15.0.0, SVG Export Plug-In . SVG Version: 6.00 Build 0)  -->
<!DOCTYPE svg PUBLIC "-//W3C//DTD SVG 1.1//EN" "http://www.w3.org/Graphics/SVG/1.1/DTD/svg11.dtd">
<svg version="1.1" id="Layer_1" xmlns="http://www.w3.org/2000/svg" xmlns:xlink="http://www.w3.org/1999/xlink" x="0px" y="0px"
	 width="100px" height="100px" viewBox="0 0 100 100" enable-background="new 0 0 100 100" xml:space="preserve">
<path fill="#424753" d="M44.231,13.357c-5.365,0.306-9.152,1.171-14.624,3.344c-7.347,2.923-13.576,6.489-18.587,10.66
	c-1.34,1.109-4.186,3.979-5.135,5.157c-2.892,3.627-4.454,6.911-4.775,10.04c-0.115,1.095,0.016,2.051,0.452,3.352
	c1.301,3.888,4.637,7.607,10.721,11.946c0.566,0.407,2.013,1.416,3.214,2.251c2.395,1.66,3.344,2.349,4.201,3.045
	c0.666,0.544,0.719,0.444-0.644,1.141c-3.65,1.859-7.14,4.094-9.604,6.168c-1.063,0.888-2.724,2.632-3.26,3.421
	c-1.791,2.625-2.403,5.892-1.583,8.494c0.589,1.866,1.843,3.391,3.144,3.786c1.523,0.476,4.087,0.637,5.717,0.354
	c3.298-0.559,6.068-1.981,8.524-4.37c2.196-2.143,3.582-4.507,4.331-7.423c0.888-3.459,0.728-7.17-0.428-9.948
	c-0.13-0.321-0.229-0.589-0.214-0.604c0.092-0.062,2.572-1.5,3.474-2.013c1.738-0.98,1.952-1.103,1.952-1.041
	c0,0.038-0.069,0.283-0.153,0.559c-0.804,2.563-1.248,6.259-1.003,8.265c0.429,3.475,1.959,6.727,3.528,7.484
	c0.964,0.459,2.387,0.413,3.29-0.114c0.482-0.284,1.049-0.881,1.523-1.593c0.513-0.788,1.883-3.566,2.687-5.471
	c0.352-0.819,0.65-1.509,0.673-1.531c0.022-0.021,0.015,0.154-0.016,0.382c-0.214,1.661-0.168,3.851,0.099,4.914
	c0.398,1.545,1.226,2.357,2.427,2.372c0.964,0.015,2.074-0.765,3.199-2.258c1.048-1.4,4.629-8.195,6.459-12.259
	c0.788-1.753,1.845-4.232,2.402-5.624c0.207-0.528,0.405-0.987,0.437-1.019c0.037-0.038,0.084,0.084,0.115,0.268
	c0.092,0.575,0.727,3.099,0.972,3.827c0.13,0.39,0.62,1.515,1.086,2.494l0.843,1.783l-0.153,0.207
	c-0.085,0.114-0.338,0.466-0.566,0.78c-0.528,0.734-1.791,2.295-3.78,4.66c-2.326,2.785-2.709,3.367-2.717,4.171
	c0,0.711,0.582,1.324,1.438,1.507c0.604,0.122,2.318,0.046,3.229-0.153c2.28-0.489,4.615-1.66,5.954-2.992
	c2.318-2.288,2.686-5.509,1.063-9.336l-0.115-0.268l0.903-1.348c1.462-2.195,2.693-4.308,4.538-7.797
	c0.236-0.443,0.443-0.75,0.458-0.688c0.023,0.062,0.131,0.543,0.245,1.071c0.529,2.434,0.95,3.666,1.914,5.586l0.513,1.018
	l-0.376,0.314c-1.248,1.049-2.624,2.587-3.504,3.91c-1.019,1.53-1.607,2.977-1.806,4.438c-0.254,1.897,0.695,3.176,2.348,3.176
	c0.666,0,2.404-0.574,3.72-1.225c2.135-1.063,3.964-2.746,4.768-4.399c0.436-0.888,0.574-1.485,0.574-2.495
	c0-0.965-0.146-1.79-0.513-2.924c-0.146-0.459-0.254-0.842-0.236-0.857c0.083-0.084,1.545-0.543,2.296-0.727
	c2.4-0.589,5.479-0.658,8.248-0.184c4.5,0.765,7.66,3.107,8.578,6.345c0.245,0.856,0.253,2.004,0.015,2.754
	c-0.366,1.157-1.231,2.205-2.524,3.093c-0.62,0.413-0.712,0.504-0.712,0.688c0,0.321,0.161,0.412,0.636,0.375
	c0.794-0.068,2.005-0.773,2.961-1.737c1.285-1.285,1.844-2.64,1.859-4.445c0.009-2.448-0.995-4.722-2.97-6.695
	c-3.068-3.069-7.913-4.44-13.276-3.743c-1.791,0.229-4.056,0.865-5.548,1.562c-0.521,0.237-0.696,0.283-0.75,0.215
	c-0.215-0.307-1.539-3.099-1.707-3.598c-0.215-0.657-0.488-2.54-0.488-3.443c0-1.171,0.252-2.411,0.879-4.271
	c0.192-0.565,0.344-1.101,0.344-1.201c0-0.275-0.421-0.689-0.863-0.841c-0.552-0.191-2.549-0.191-3.535,0.007
	c-0.751,0.146-1.34,0.368-1.517,0.566c-0.145,0.161-0.611,1.63-0.811,2.556c-0.268,1.232-0.619,2.097-1.798,4.386
	c-1.041,2.035-4.003,7.292-4.247,7.56c-0.069,0.069-0.927-1.683-1.155-2.356c-0.085-0.253-0.207-0.773-0.268-1.147
	c-0.415-2.603-0.307-3.75,0.619-6.559l0.42-1.293l-0.137-0.237c-0.321-0.55-1.232-0.789-2.74-0.726
	c-1.109,0.054-1.691,0.145-2.372,0.367c-0.765,0.245-0.773,0.268-1.148,1.684c-0.183,0.689-0.391,1.424-0.459,1.638
	c-0.253,0.743-2.157,5.097-5.312,12.13c-1.584,3.527-3.497,7.429-3.803,7.759c-0.184,0.199-0.215,0.206-0.283,0.084
	c-0.039-0.077-0.054-0.628-0.03-1.332c0.022-0.956,0.083-1.424,0.275-2.341c0.307-1.4,0.972-4.088,1.676-6.697
	c0.635-2.356,0.658-2.439,0.551-2.822c-0.146-0.552-0.842-1.041-1.607-1.134c-0.528-0.061-0.857,0.023-1.309,0.338
	c-0.23,0.153-0.383,0.222-0.352,0.153c0.115-0.307,0.222-1.776,0.184-2.503c-0.146-2.579-1.278-3.78-3.451-3.652
	c-1.546,0.085-3.512,1.042-5.403,2.618c-0.734,0.613-2.15,2.074-2.632,2.717c-0.26,0.353-0.498,0.566-0.804,0.735
	c-0.237,0.13-2.426,1.331-4.859,2.671l-4.431,2.426l-0.926-0.911c-1.385-1.37-2.387-2.211-5.311-4.454
	c-2.961-2.271-4.813-3.863-5.854-5.012c-1.668-1.844-2.541-3.314-3.023-5.083C8.523,45.562,8.5,45.362,8.5,44.076
	c0-1.177,0.031-1.545,0.168-2.196c0.444-2.036,1.485-4.078,3.123-6.145c0.711-0.895,2.946-3.115,4.01-3.979
	c3.267-2.655,6.91-4.943,11.608-7.3c5.464-2.74,10.185-4.27,15.29-4.958c1.729-0.23,5.525-0.253,6.933-0.039
	c3.016,0.452,5.135,1.354,6.468,2.748c0.512,0.528,0.834,1.102,1.102,1.936c0.26,0.812,0.298,2.411,0.084,3.451
	c-0.535,2.594-2.005,5.173-4.354,7.614c-3.46,3.597-8.212,6.283-13.523,7.629c-5.203,1.324-9.236,1.232-12.289-0.29
	c-0.873-0.429-1.493-0.88-2.189-1.584c-0.681-0.689-0.834-0.75-1.133-0.444c-0.237,0.229-0.237,0.459-0.015,1.118
	c0.253,0.727,0.628,1.308,1.316,2.02c0.765,0.789,1.676,1.454,2.709,1.981c1.355,0.689,2.449,1.01,4.408,1.286
	c0.926,0.13,4.69,0.13,5.893,0c3.528-0.391,7.315-1.37,10.408-2.686c7.316-3.13,13.194-10.216,14.081-16.966
	c0.215-1.668,0.137-3.413-0.237-4.882c-1.208-4.836-6.306-8.135-13.729-8.877C47.49,13.396,45.05,13.312,44.231,13.357z
	 M42.233,54.72c0.169,0.13,0.199,0.214,0.199,0.566c0,0.85-0.452,2.625-1.354,5.312c-0.543,1.644-2.503,6.733-3.192,8.311
	c-0.856,1.958-1.683,3.175-2.158,3.175c-0.727,0-1.201-1.607-1.201-4.056c0-2.785,0.559-5.181,1.829-7.768
	c0.582-1.194,1.339-2.471,1.929-3.252C39.586,55.269,41.507,54.152,42.233,54.72z M73.771,63.083
	c0.099,0.476,0.122,0.835,0.092,1.363c-0.123,2.104-1.142,3.559-3.185,4.562c-0.695,0.336-0.719,0.343-0.827,0.197
	c-0.405-0.535,0.927-3.627,2.258-5.232c0.413-0.506,1.408-1.531,1.477-1.531C73.616,62.44,73.692,62.731,73.771,63.083z
	 M22.406,66.779c0.259,1.187,0.321,1.714,0.313,3.008c0,2.035-0.329,3.436-1.217,5.242c-1.515,3.062-4.354,5.578-7.269,6.436
	c-0.796,0.237-2.235,0.338-2.755,0.191c-1.224-0.329-1.76-1.531-1.469-3.282c0.55-3.361,2.862-6.068,8.241-9.673
	c1.293-0.865,3.826-2.42,3.957-2.427C22.253,66.267,22.345,66.496,22.406,66.779z M60.646,67.476
	c-0.214,1.522-1.209,2.97-2.907,4.217c-0.926,0.688-1.592,1.002-1.83,0.857c-0.076-0.054,0.062-0.244,0.536-0.773
	c1.76-1.951,2.228-2.504,3.068-3.551c0.506-0.62,0.957-1.202,1.004-1.277C60.669,66.695,60.73,66.916,60.646,67.476z"/>
</svg>
