<?xml version="1.0" encoding="utf-8"?>
<svg version="1.1" id="Layer_1" xmlns="http://www.w3.org/2000/svg" xmlns:xlink="http://www.w3.org/1999/xlink" x="0px" y="0px"
	 width="300px" height="200px" viewBox="0 0 300 200" enable-background="new 0 0 300 200" xml:space="preserve">
<g>
	<g>
		<path fill="#242055" d="M125.037,91.961c0,3.235,0.155,6.396,0.62,8.938h-6.162l-0.539-4.698h-0.232
			c-2.076,2.929-6.081,5.547-11.395,5.547c-7.546,0-11.394-5.314-11.394-10.707c0-9.015,8.004-13.941,22.405-13.868v-0.765
			c0-3.087-0.846-8.631-8.47-8.631c-3.463,0-7.083,1.078-9.7,2.773l-1.542-4.465c3.083-2.002,7.547-3.313,12.246-3.313
			c11.395,0,14.165,7.779,14.165,15.247V91.961L125.037,91.961z M118.497,81.878c-7.395-0.158-15.791,1.153-15.791,8.391
			c0,4.392,2.932,6.472,6.395,6.472c4.848,0,7.932-3.08,9.009-6.242c0.229-0.688,0.388-1.459,0.388-2.156L118.497,81.878
			L118.497,81.878z"/>
		<path fill="#242055" d="M135.992,75.249c0-4.391-0.076-8.162-0.309-11.63h5.93l0.232,7.319h0.306
			c1.695-5.01,5.774-8.166,10.32-8.166c0.771,0,1.31,0.075,1.927,0.233v6.39c-0.696-0.155-1.391-0.233-2.312-0.233
			c-4.773,0-8.163,3.621-9.086,8.705c-0.155,0.924-0.307,2.002-0.307,3.158v19.874h-6.702V75.249z"/>
		<path fill="#242055" d="M204.934,95.122h-0.152c-2.004,3.697-6.155,6.625-12.163,6.625c-8.701,0-15.787-7.545-15.787-18.871
			c0-13.942,9.002-20.104,16.866-20.104c5.768,0,9.618,2.848,11.469,6.468h0.153l0.227-5.621h6.397
			c-0.15,3.154-0.231,6.392-0.231,10.242v42.29h-6.778V95.122L204.934,95.122z M204.934,78.716c0-0.923-0.074-2.001-0.307-2.848
			c-0.998-4.164-4.622-7.707-9.699-7.707c-7.012,0-11.251,5.933-11.251,14.33c0,7.395,3.548,13.86,11.017,13.86
			c4.391,0,8.164-2.692,9.7-7.394c0.313-0.924,0.54-2.234,0.54-3.231V78.716L204.934,78.716z"/>
		<path fill="#242055" d="M254.091,90.733c0,3.85,0.074,7.237,0.301,10.166h-6.008l-0.381-6.084h-0.158
			c-1.769,3.003-5.693,6.932-12.314,6.932c-5.855,0-12.866-3.238-12.866-16.333V63.619h6.784v20.642
			c0,7.087,2.156,11.866,8.314,11.866c4.54,0,7.699-3.163,8.929-6.169c0.388-1,0.614-2.229,0.614-3.468V63.619h6.784L254.091,90.733
			L254.091,90.733z"/>
		<path fill="#242055" d="M269.126,83.489c0.148,9.169,6.003,12.944,12.776,12.944c4.852,0,7.782-0.846,10.322-1.925l1.153,4.847
			c-2.384,1.077-6.467,2.392-12.396,2.392c-11.476,0-18.328-7.629-18.328-18.871c0-11.245,6.621-20.104,17.481-20.104
			c12.164,0,15.397,10.707,15.397,17.562c0,1.386-0.148,2.464-0.227,3.154L269.126,83.489L269.126,83.489z M288.99,78.639
			c0.071-4.312-1.77-11.017-9.396-11.017c-6.854,0-9.855,6.323-10.396,11.017H288.99z"/>
		<g>
			<path fill="#242055" d="M76.884,73.263c-0.609-11.604-1.34-25.565-1.217-35.946h-0.368c-2.809,9.761-6.227,20.261-10.379,31.629
				l-14.525,40.396h-8.062L29.026,69.686c-3.905-11.737-7.204-22.485-9.521-32.369h-0.249c-0.242,10.381-0.852,24.341-1.584,36.815
				l-2.199,35.707H5.34l5.739-83.271H24.63l14.042,40.273c3.415,10.252,6.223,19.399,8.302,28.052h0.365
				c2.075-8.404,5.006-17.548,8.669-28.052l14.648-40.273H84.21l5.13,83.271H78.959L76.884,73.263z"/>
			<path fill="#242055" d="M115.153,185.164c-3.802,1.932-11.397,3.965-21.13,3.965c-22.549,0-39.525-14.533-39.525-41.074
				c0-25.349,16.976-42.526,41.782-42.526c9.971,0,16.259,2.163,18.99,3.607l-2.492,8.53c-3.918-1.922-9.497-3.365-16.143-3.365
				c-18.754,0-31.217,12.128-31.217,33.396c0,19.812,11.275,32.543,30.743,32.543c6.291,0,12.698-1.319,16.856-3.364
				L115.153,185.164z"/>
		</g>
		<path fill="#242055" d="M150.334,177.664c0,3.238,0.154,6.398,0.619,8.939h-6.162l-0.539-4.702h-0.232
			c-2.079,2.932-6.081,5.548-11.393,5.548c-7.548,0-11.396-5.312-11.396-10.706c0-9.012,8.005-13.942,22.405-13.868v-0.767
			c0-3.082-0.849-8.631-8.47-8.631c-3.467,0-7.082,1.082-9.702,2.773l-1.54-4.465c3.079-2.001,7.549-3.312,12.243-3.312
			c11.398,0,14.167,7.778,14.167,15.249L150.334,177.664L150.334,177.664z M143.791,167.58c-7.392-0.156-15.787,1.154-15.787,8.391
			c0,4.392,2.928,6.474,6.396,6.474c4.847,0,7.927-3.08,9.008-6.241c0.229-0.691,0.383-1.463,0.383-2.156V167.58L143.791,167.58z"/>
		<path fill="#242055" d="M206.036,185.216c-1.768,0.924-5.693,2.233-10.703,2.233c-11.242,0-18.558-7.704-18.558-19.104
			c0-11.475,7.854-19.796,20.02-19.796c4.006,0,7.547,1.009,9.391,1.928l-1.533,5.237c-1.617-0.924-4.159-1.769-7.857-1.769
			c-8.548,0-13.167,6.313-13.167,14.093c0,8.63,5.542,13.942,12.94,13.942c3.853,0,6.39-1.005,8.312-1.851L206.036,185.216z"/>
		<path fill="#242055" d="M245.176,176.438c0,3.851,0.074,7.234,0.306,10.166h-6.007l-0.381-6.086h-0.158
			c-1.775,3.006-5.701,6.932-12.32,6.932c-5.852,0-12.859-3.238-12.859-16.33v-21.795h6.777v20.638
			c0,7.088,2.156,11.865,8.312,11.865c4.545,0,7.698-3.155,8.936-6.163c0.383-1.005,0.617-2.235,0.617-3.468v-22.873h6.776
			L245.176,176.438L245.176,176.438z"/>
		<path fill="#242055" d="M255.517,179.672c2.002,1.304,5.546,2.694,8.929,2.694c4.929,0,7.237-2.461,7.237-5.549
			c0-3.237-1.918-5.006-6.921-6.855c-6.704-2.382-9.857-6.083-9.857-10.548c0-6.009,4.848-10.939,12.854-10.939
			c3.776,0,7.085,1.082,9.167,2.309l-1.694,4.931c-1.466-0.924-4.161-2.157-7.625-2.157c-4.006,0-6.237,2.311-6.237,5.084
			c0,3.081,2.231,4.467,7.084,6.317c6.468,2.466,9.777,5.703,9.777,11.246c0,6.548-5.083,11.245-13.934,11.245
			c-4.082,0-7.855-1.079-10.47-2.615L255.517,179.672z"/>
	</g>
	<g>
		<rect x="161.491" y="63.619" fill="#12B24B" width="6.783" height="124.143"/>
		<g>
			<path fill="#242055" d="M149.972,31.608c0-12.837,10.406-23.254,23.241-23.254c12.837,0,23.244,10.417,23.244,23.254
				c0,12.831-10.407,23.251-23.244,23.251C160.378,54.859,149.972,44.439,149.972,31.608z"/>
			<path fill="#12B24B" d="M158.349,38.169c0-3.526,2.86-6.383,6.381-6.383c3.524,0,6.376,2.857,6.376,6.383
				c0,3.519-2.851,6.377-6.376,6.377C161.209,44.547,158.349,41.688,158.349,38.169z"/>
		</g>
	</g>
</g>
</svg>
