<?xml version="1.0" encoding="utf-8"?>
<!-- Generator: Adobe Illustrator 15.0.0, SVG Export Plug-In . SVG Version: 6.00 Build 0)  -->
<!DOCTYPE svg PUBLIC "-//W3C//DTD SVG 1.1//EN" "http://www.w3.org/Graphics/SVG/1.1/DTD/svg11.dtd">
<svg version="1.1" id="Layer_1" xmlns="http://www.w3.org/2000/svg" xmlns:xlink="http://www.w3.org/1999/xlink" x="0px" y="0px"
	 width="100px" height="100px" viewBox="0 0 100 100" enable-background="new 0 0 100 100" xml:space="preserve">
<g id="Layer_1_1_">
	<path fill="#11B14B" d="M74.538,56.647c-1.301-1.831-2.702-3.502-4.175-4.972c0.697-3.318,1.052-6.703,1.052-10.069
		c0-16.112-7.965-31.075-20.786-39.052c-0.365-0.227-0.825-0.227-1.19,0c-12.82,7.977-20.787,22.941-20.787,39.053
		c0,3.263,0.331,6.546,0.984,9.768c-1.469,1.467-2.871,3.138-4.174,4.974c-0.202,0.285-0.26,0.645-0.16,0.978l7.205,23.76
		c0.121,0.398,0.449,0.692,0.855,0.776c0.404,0.08,0.823-0.067,1.088-0.386c1.98-2.385,4.724-4.267,7.831-5.394v1.256
		c0,0.621,0.505,1.126,1.126,1.126h13.18c0.623,0,1.127-0.505,1.127-1.126v-0.958c3.107,1.127,5.847,3.012,7.829,5.393
		c0.216,0.261,0.538,0.407,0.869,0.407c0.072,0,0.146-0.01,0.224-0.023c0.405-0.084,0.73-0.381,0.855-0.775l7.201-23.76
		C74.799,57.294,74.74,56.932,74.538,56.647z M57.521,34.308c-1.493,2.748-4.359,4.455-7.483,4.455
		c-2.968,0-5.674-1.515-7.239-4.052c-0.832-1.347-1.27-2.888-1.27-4.456c0-4.691,3.817-8.507,8.508-8.507
		c4.691,0,8.507,3.816,8.507,8.507C58.545,31.671,58.189,33.072,57.521,34.308z M60.199,67.015
		c-0.188,0.417-0.599,0.665-1.029,0.665c-0.153,0-0.309-0.034-0.463-0.102c-0.567-0.257-0.819-0.921-0.563-1.488
		c7.039-15.653,6.026-29.629,6.016-29.769c-0.052-0.618,0.41-1.162,1.031-1.212c0.627-0.042,1.159,0.413,1.211,1.031
		C66.45,36.732,67.486,50.806,60.199,67.015z"/>
	<path fill="#242054" d="M56.435,79.933H43.455c-0.377,0-0.729,0.188-0.937,0.502c-0.209,0.315-0.247,0.714-0.102,1.059l6.49,15.433
		c0.177,0.417,0.586,0.689,1.039,0.689s0.862-0.272,1.038-0.689l6.492-15.433c0.145-0.349,0.107-0.743-0.101-1.059
		C57.165,80.121,56.812,79.933,56.435,79.933z"/>
</g>
<g id="Layer_2" display="none">
	<path display="inline" fill="none" stroke="#010101" stroke-miterlimit="10" d="M74.925,56.752
		c-1.321-1.859-2.745-3.557-4.241-5.05c0.709-3.371,1.068-6.808,1.068-10.228c0-16.366-8.09-31.564-21.113-39.667
		c-0.371-0.23-0.838-0.23-1.208,0C36.408,9.91,28.316,25.11,28.316,41.474c0,3.316,0.336,6.65,1,9.92
		c-1.493,1.491-2.916,3.188-4.24,5.053c-0.205,0.289-0.264,0.654-0.162,0.994l7.319,24.133c0.122,0.404,0.456,0.705,0.868,0.789
		c0.41,0.082,0.836-0.068,1.105-0.391c2.012-2.424,4.799-4.336,7.954-5.479v1.274c0,0.631,0.513,1.145,1.144,1.145h13.387
		c0.633,0,1.145-0.514,1.145-1.145v-0.973c3.156,1.145,5.939,3.059,7.953,5.479c0.219,0.265,0.546,0.412,0.883,0.412
		c0.073,0,0.148-0.009,0.227-0.022c0.412-0.086,0.742-0.388,0.869-0.788l7.314-24.134C75.189,57.409,75.13,57.041,74.925,56.752z"/>
</g>
</svg>
