<?xml version="1.0" encoding="utf-8"?>
<!-- Generator: Adobe Illustrator 15.0.0, SVG Export Plug-In . SVG Version: 6.00 Build 0)  -->
<!DOCTYPE svg PUBLIC "-//W3C//DTD SVG 1.1//EN" "http://www.w3.org/Graphics/SVG/1.1/DTD/svg11.dtd">
<svg version="1.1" id="Layer_1" xmlns="http://www.w3.org/2000/svg" xmlns:xlink="http://www.w3.org/1999/xlink" x="0px" y="0px"
	 width="100px" height="100px" viewBox="0 0 100 100" enable-background="new 0 0 100 100" xml:space="preserve">
<g display="none">
	<path display="inline" fill="none" stroke="#000000" stroke-miterlimit="10" d="M30.169,41.995c0,0-0.137-1.514-0.205-2.273
		c0.358-0.205,0.7-0.427,1.021-0.676c0.57,0.327,1.705,0.984,1.705,0.984l1.934-0.508l2.196-3.795l-0.508-1.935
		c0,0-1.462-0.849-2.193-1.268c-0.02-0.421-0.065-0.84-0.15-1.241c0.581-0.499,1.736-1.488,1.736-1.488v-2l-2.856-3.329h-2
		c0,0-0.949,0.811-1.422,1.218c-0.515-0.248-1.058-0.454-1.625-0.608c-0.046-0.563-0.138-1.69-0.138-1.69l-1.414-1.414l-4.37,0.353
		l-1.414,1.415c0,0,0.12,1.485,0.179,2.227c-0.428,0.242-0.831,0.518-1.209,0.825c-0.612-0.284-1.845-0.845-1.845-0.845
		l-1.935,0.506l-1.831,3.988l-0.064,0.272l0.574,1.664c0,0,1.427,0.651,2.143,0.979c0.031,0.471,0.103,0.928,0.22,1.374
		c-0.545,0.458-1.634,1.386-1.634,1.386v1.998l2.833,3.346c0,0,1.648,0.197,1.737,0.147c0.09-0.048,0.266-0.147,0.266-0.147
		s1.037-0.876,1.554-1.317c0.436,0.197,0.891,0.36,1.365,0.489c0.052,0.59,0.161,1.765,0.161,1.765l1.414,1.414l4.363-0.399
		L30.169,41.995z"/>
	<path display="inline" fill="none" stroke="#000000" stroke-miterlimit="10" d="M75.569,79.475
		c-0.01-0.696-0.064-1.387-0.184-2.058c0.98-0.786,2.944-2.358,2.944-2.358l0.106-3.298l-4.532-5.642l-3.3-0.106
		c0,0-1.608,1.291-2.409,1.935c-0.835-0.435-1.72-0.806-2.646-1.091c-0.045-0.931-0.138-2.796-0.138-2.796l-2.259-2.405l-7.22,0.353
		l-2.405,2.254c0,0,0.117,2.454,0.174,3.682c-0.716,0.377-1.397,0.812-2.035,1.292c-0.997-0.496-2.997-1.488-2.997-1.488
		l-3.217,0.734l-3.227,6.479l-0.12,0.444l0.855,2.773c0,0,2.319,1.146,3.479,1.721c0.027,0.782,0.123,1.539,0.291,2.281
		c-0.924,0.729-2.769,2.198-2.769,2.198l-0.107,3.291l4.494,5.665c0,0,2.706,0.413,2.854,0.337c0.147-0.077,0.445-0.23,0.445-0.23
		s1.756-1.39,2.632-2.084c0.709,0.346,1.45,0.644,2.226,0.876c0.056,0.974,0.171,2.917,0.171,2.917l2.256,2.404l7.211-0.423
		l2.409-2.254c0,0-0.146-2.506-0.219-3.759c0.597-0.319,1.176-0.669,1.723-1.061c0.915,0.57,2.753,1.712,2.753,1.712l3.218-0.736
		l3.822-6.141l-0.734-3.217C79.115,81.679,76.751,80.208,75.569,79.475z"/>
</g>
<g>
	<path fill="#242054" d="M30.697,42.129c0,0-0.135-1.489-0.201-2.237c0.351-0.202,0.687-0.42,1.001-0.666
		c0.559,0.322,1.671,0.969,1.671,0.969l1.896-0.5l2.153-3.734l-0.499-1.904c0,0-1.434-0.835-2.15-1.248
		c-0.019-0.414-0.064-0.827-0.147-1.221c0.569-0.491,1.703-1.464,1.703-1.464v-1.969l-2.801-3.275h-1.961
		c0,0-0.931,0.798-1.394,1.199c-0.505-0.244-1.038-0.447-1.594-0.599c-0.045-0.554-0.135-1.663-0.135-1.663l-1.386-1.391
		l-4.285,0.347l-1.386,1.392c0,0,0.118,1.461,0.175,2.191c-0.419,0.238-0.814,0.509-1.186,0.812c-0.601-0.28-1.81-0.831-1.81-0.831
		l-1.897,0.498L14.67,30.76l-0.063,0.268l0.563,1.637c0,0,1.399,0.641,2.101,0.963c0.031,0.463,0.101,0.913,0.216,1.352
		c-0.535,0.451-1.602,1.364-1.602,1.364v1.966l2.778,3.292c0,0,1.616,0.194,1.704,0.145c0.088-0.047,0.26-0.145,0.26-0.145
		s1.017-0.862,1.524-1.296c0.427,0.194,0.874,0.354,1.339,0.481c0.051,0.581,0.158,1.737,0.158,1.737l1.387,1.391l4.278-0.392
		L30.697,42.129z M25.682,37.509c-2.389,0-4.324-1.943-4.324-4.338c0-2.398,1.936-4.34,4.324-4.34c2.39,0,4.327,1.942,4.327,4.34
		C30.009,35.564,28.072,37.509,25.682,37.509z"/>
	<path fill="#11B14B" d="M42.587,56.241c0,0-0.102-1.126-0.151-1.689c0.266-0.153,0.519-0.319,0.757-0.504
		c0.421,0.243,1.262,0.731,1.262,0.731l1.435-0.377l1.628-2.824l-0.377-1.438c0,0-1.082-0.631-1.625-0.942
		c-0.013-0.313-0.047-0.625-0.112-0.922c0.43-0.37,1.288-1.108,1.288-1.108V45.68l-2.117-2.478h-1.485c0,0-0.704,0.604-1.054,0.906
		c-0.381-0.185-0.786-0.337-1.205-0.453c-0.034-0.418-0.1-1.258-0.1-1.258l-1.048-1.052l-3.239,0.265l-1.047,1.051
		c0,0,0.089,1.106,0.132,1.655c-0.317,0.18-0.619,0.386-0.896,0.614c-0.454-0.21-1.368-0.627-1.368-0.627l-1.435,0.377l-1.357,2.968
		l-0.047,0.201l0.426,1.237c0,0,1.06,0.485,1.587,0.728c0.024,0.352,0.078,0.688,0.165,1.023c-0.404,0.342-1.211,1.03-1.211,1.03
		v1.486l2.101,2.49c0,0,1.222,0.145,1.288,0.109c0.068-0.036,0.197-0.109,0.197-0.109s0.768-0.651,1.15-0.979
		c0.324,0.146,0.662,0.268,1.015,0.362c0.041,0.438,0.12,1.311,0.12,1.311l1.048,1.053l3.235-0.296L42.587,56.241z M38.794,52.748
		c-1.805,0-3.269-1.469-3.269-3.279c0-1.814,1.464-3.283,3.269-3.283c1.809,0,3.274,1.471,3.274,3.283
		C42.069,51.279,40.604,52.748,38.794,52.748z"/>
	<path fill="#242054" d="M72.4,15.321c-13.729,0-27.459,0-41.189,0c-3.449,0-3.449,5.367,0,5.367c13.729,0,27.459,0,41.189,0
		C75.847,20.688,75.847,15.321,72.4,15.321z"/>
	<path fill="#242054" d="M72.4,28.023c-13.729,0-6.065,0-19.797,0c-3.448,0-3.448,5.367,0,5.367c13.731,0,6.067,0,19.797,0
		C75.847,33.39,75.847,28.023,72.4,28.023z"/>
	<polygon fill="#242054" points="17.943,8.612 80.1,8.612 80.1,42.674 86.518,42.674 86.518,2.172 11.525,2.172 11.525,23.176 
		17.943,23.176 	"/>
	<path fill="#11B14B" d="M75.218,79.01c-0.01-0.686-0.063-1.364-0.18-2.024c0.961-0.773,2.887-2.321,2.887-2.321l0.104-3.245
		l-4.444-5.551l-3.236-0.105c0,0-1.577,1.271-2.362,1.904c-0.818-0.428-1.687-0.793-2.596-1.074
		c-0.043-0.915-0.134-2.751-0.134-2.751l-2.216-2.367l-7.08,0.348l-2.358,2.218c0,0,0.115,2.415,0.171,3.623
		c-0.702,0.37-1.37,0.799-1.996,1.271c-0.978-0.488-2.938-1.465-2.938-1.465l-3.155,0.723l-3.164,6.375l-0.117,0.438l0.838,2.729
		c0,0,2.274,1.129,3.412,1.693c0.026,0.771,0.12,1.514,0.285,2.244c-0.906,0.718-2.715,2.164-2.715,2.164l-0.105,3.238l4.407,5.574
		c0,0,2.653,0.406,2.799,0.332c0.145-0.076,0.436-0.227,0.436-0.227s1.723-1.368,2.582-2.051c0.694,0.34,1.422,0.633,2.182,0.862
		c0.055,0.958,0.167,2.87,0.167,2.87l2.213,2.365l7.071-0.416l2.362-2.218c0,0-0.143-2.467-0.214-3.698
		c0.585-0.315,1.152-0.659,1.688-1.045c0.897,0.562,2.7,1.685,2.7,1.685l3.154-0.725l3.748-6.042l-0.72-3.165
		C78.694,81.179,76.377,79.731,75.218,79.01z M60.314,86.279c-3.937-0.126-7.025-3.433-6.896-7.385
		c0.125-3.953,3.421-7.052,7.357-6.926c3.941,0.129,7.028,3.434,6.903,7.391C67.549,83.311,64.256,86.409,60.314,86.279z"/>
	<path fill="#242054" d="M88.365,63.872c0,0-2.493-1.558-3.743-2.335c-0.009-0.733-0.063-1.466-0.192-2.173
		c1.036-0.834,3.109-2.498,3.109-2.498l0.112-3.489l-4.781-5.973l-3.479-0.113c0,0-1.697,1.362-2.541,2.049
		c-0.882-0.466-1.815-0.856-2.795-1.157c-0.047-0.988-0.142-2.959-0.142-2.959l-2.38-2.549l-7.619,0.375l-2.539,2.386
		c0,0,0.128,2.596,0.186,3.892c-0.756,0.401-1.475,0.859-2.145,1.373c-1.052-0.526-3.166-1.576-3.166-1.576l-3.389,0.779
		l-3.407,6.855l-0.129,0.469l0.905,2.935c0,0,1.597,0.795,2.855,1.422l1.414-1.328l0.575-0.54l0.783-0.038l5.686-0.277
		c0.994-3.233,4.016-5.544,7.547-5.431c4.238,0.134,7.562,3.689,7.424,7.944c-0.031,1.142-0.334,2.211-0.81,3.173l3.989,4.988
		l0.498,0.622l-0.025,0.796l-0.065,2.056c0.823,0.512,1.618,1.009,1.618,1.009l3.392-0.777l4.031-6.496L88.365,63.872z"/>
	<path fill="#242054" d="M15.224,56.25c0.628,0,1.149-0.173,1.562-0.513c0.413-0.339,0.726-0.821,0.933-1.441
		c0.208-0.62,0.312-1.438,0.312-2.455c0-0.854-0.066-1.536-0.191-2.039c-0.131-0.508-0.311-0.934-0.535-1.289
		c-0.231-0.35-0.518-0.621-0.864-0.805c-0.349-0.184-0.753-0.279-1.216-0.279c-0.627,0-1.146,0.167-1.559,0.506
		c-0.414,0.336-0.726,0.815-0.938,1.438c-0.205,0.625-0.312,1.445-0.312,2.467c0,1.625,0.284,2.795,0.847,3.512
		C13.739,55.948,14.393,56.25,15.224,56.25z M14.049,48.924c0.289-0.412,0.678-0.621,1.164-0.621c0.492,0,0.902,0.233,1.237,0.7
		c0.329,0.468,0.496,1.412,0.496,2.834c0,1.415-0.167,2.358-0.496,2.827c-0.332,0.472-0.741,0.709-1.225,0.709
		c-0.486,0-0.894-0.237-1.223-0.706c-0.332-0.468-0.496-1.414-0.496-2.83C13.502,50.423,13.684,49.45,14.049,48.924z"/>
	<path fill="#242054" d="M21.462,48.582c-0.443,0.398-0.96,0.735-1.551,1.016v1.024c0.33-0.121,0.702-0.303,1.115-0.547
		c0.413-0.243,0.745-0.486,0.999-0.728v6.756h1.057V47.43h-0.683C22.217,47.803,21.905,48.186,21.462,48.582z"/>
	<path fill="#242054" d="M17.504,61.395c-0.229-0.351-0.513-0.621-0.864-0.805c-0.349-0.186-0.753-0.279-1.215-0.279
		c-0.624,0-1.147,0.166-1.559,0.506c-0.414,0.337-0.721,0.816-0.933,1.438c-0.208,0.625-0.314,1.446-0.314,2.465
		c0,1.623,0.284,2.794,0.851,3.515c0.472,0.596,1.123,0.893,1.955,0.893c0.629,0,1.151-0.171,1.567-0.512
		c0.408-0.338,0.72-0.818,0.931-1.438c0.207-0.625,0.312-1.442,0.312-2.457c0-0.855-0.064-1.536-0.193-2.037
		C17.908,62.174,17.729,61.746,17.504,61.395z M16.648,67.547c-0.331,0.473-0.737,0.707-1.223,0.707
		c-0.485,0-0.892-0.234-1.224-0.705c-0.332-0.47-0.492-1.412-0.492-2.83c0-1.417,0.177-2.391,0.541-2.913
		c0.29-0.414,0.68-0.62,1.164-0.62c0.495,0,0.905,0.232,1.236,0.699c0.333,0.465,0.496,1.411,0.496,2.832
		C17.145,66.137,16.981,67.074,16.648,67.547z"/>
	<path fill="#242054" d="M23.285,68.98v-8.672h-0.682c-0.182,0.373-0.497,0.759-0.938,1.152c-0.44,0.398-0.959,0.736-1.549,1.017
		v1.025c0.327-0.121,0.7-0.304,1.112-0.55c0.413-0.243,0.747-0.486,0.999-0.728v6.757h1.057V68.98z"/>
	<path fill="#242054" d="M29.078,68.98v-8.672h-0.68c-0.182,0.373-0.496,0.759-0.937,1.152c-0.441,0.398-0.959,0.736-1.549,1.017
		v1.025c0.325-0.121,0.7-0.304,1.112-0.55c0.413-0.243,0.749-0.486,0.999-0.728v6.757h1.055V68.98z"/>
	<path fill="#242054" d="M36.67,61.395c-0.229-0.351-0.513-0.621-0.864-0.805c-0.349-0.186-0.752-0.279-1.213-0.279
		c-0.626,0-1.149,0.166-1.561,0.506c-0.414,0.337-0.721,0.816-0.933,1.438c-0.208,0.625-0.312,1.446-0.312,2.468
		c0,1.624,0.282,2.795,0.85,3.512c0.473,0.597,1.125,0.896,1.957,0.896c0.627,0,1.149-0.171,1.562-0.511
		c0.413-0.341,0.721-0.823,0.931-1.443c0.207-0.62,0.315-1.438,0.315-2.454c0-0.854-0.067-1.537-0.198-2.04
		C37.077,62.174,36.9,61.746,36.67,61.395z M35.815,67.547c-0.331,0.473-0.738,0.707-1.222,0.707c-0.488,0-0.894-0.234-1.228-0.705
		c-0.332-0.47-0.493-1.412-0.493-2.83c0-1.417,0.183-2.391,0.542-2.913c0.293-0.414,0.679-0.62,1.163-0.62
		c0.495,0,0.906,0.232,1.237,0.699c0.332,0.465,0.497,1.411,0.497,2.832C36.313,66.137,36.15,67.074,35.815,67.547z"/>
	<path fill="#242054" d="M17.504,75.874c-0.229-0.353-0.513-0.62-0.864-0.807c-0.349-0.185-0.753-0.281-1.215-0.281
		c-0.624,0-1.147,0.172-1.559,0.508c-0.414,0.337-0.721,0.816-0.933,1.438c-0.208,0.623-0.314,1.445-0.314,2.467
		c0,1.623,0.284,2.795,0.851,3.512c0.472,0.599,1.123,0.896,1.955,0.896c0.629,0,1.151-0.167,1.567-0.511
		c0.408-0.338,0.72-0.819,0.931-1.442c0.207-0.621,0.312-1.438,0.312-2.455c0-0.854-0.064-1.536-0.193-2.04
		C17.908,76.651,17.729,76.226,17.504,75.874z M16.648,82.026c-0.331,0.472-0.737,0.709-1.223,0.709
		c-0.485,0-0.892-0.234-1.224-0.704c-0.332-0.471-0.492-1.413-0.492-2.832c0-1.414,0.177-2.387,0.541-2.912
		c0.29-0.413,0.68-0.621,1.164-0.621c0.495,0,0.905,0.233,1.236,0.701c0.333,0.466,0.496,1.411,0.496,2.832
		C17.145,80.614,16.981,81.557,16.648,82.026z"/>
	<path fill="#242054" d="M24.191,75.874c-0.231-0.353-0.517-0.62-0.864-0.807c-0.349-0.185-0.753-0.281-1.214-0.281
		c-0.625,0-1.147,0.172-1.56,0.508c-0.413,0.337-0.725,0.816-0.937,1.438c-0.208,0.623-0.312,1.441-0.312,2.464
		c0,1.625,0.282,2.796,0.847,3.513c0.474,0.598,1.126,0.898,1.958,0.898c0.629,0,1.15-0.171,1.561-0.511
		c0.413-0.341,0.725-0.823,0.933-1.442c0.207-0.621,0.312-1.441,0.312-2.458c0-0.851-0.066-1.536-0.192-2.04
		C24.596,76.651,24.416,76.226,24.191,75.874z M23.336,82.026c-0.332,0.472-0.737,0.709-1.223,0.709
		c-0.486,0-0.894-0.234-1.225-0.704c-0.331-0.471-0.496-1.413-0.496-2.832c0-1.414,0.181-2.387,0.545-2.912
		c0.29-0.413,0.678-0.621,1.165-0.621c0.494,0,0.905,0.233,1.236,0.701c0.33,0.466,0.496,1.411,0.496,2.832
		C23.832,80.614,23.666,81.557,23.336,82.026z"/>
	<path fill="#242054" d="M30.875,75.874c-0.227-0.353-0.513-0.62-0.86-0.807c-0.353-0.185-0.757-0.281-1.215-0.281
		c-0.624,0-1.146,0.172-1.559,0.508c-0.415,0.337-0.725,0.816-0.937,1.438c-0.208,0.623-0.312,1.441-0.312,2.464
		c0,1.625,0.281,2.796,0.847,3.513c0.474,0.598,1.125,0.898,1.958,0.898c0.626,0,1.151-0.171,1.561-0.511
		c0.413-0.341,0.722-0.823,0.931-1.442c0.208-0.621,0.315-1.441,0.315-2.458c0-0.851-0.067-1.536-0.198-2.04
		C31.284,76.651,31.104,76.226,30.875,75.874z M30.021,82.026c-0.329,0.472-0.739,0.709-1.221,0.709
		c-0.488,0-0.894-0.234-1.226-0.704c-0.331-0.471-0.494-1.413-0.494-2.832c0-1.414,0.181-2.387,0.543-2.912
		c0.292-0.413,0.68-0.621,1.164-0.621c0.492,0,0.905,0.233,1.236,0.701c0.332,0.466,0.499,1.411,0.499,2.832
		C30.52,80.614,30.354,81.557,30.021,82.026z"/>
	<path fill="#242054" d="M36.662,83.461v-8.675h-0.68c-0.184,0.375-0.498,0.76-0.941,1.156c-0.443,0.398-0.959,0.734-1.549,1.017
		v1.022c0.33-0.122,0.7-0.305,1.112-0.546c0.413-0.247,0.75-0.489,0.999-0.73v6.756H36.662L36.662,83.461z"/>
	<path fill="#242054" d="M42.368,90c-0.443,0.396-0.96,0.733-1.551,1.014v1.026c0.33-0.123,0.702-0.304,1.114-0.545
		c0.414-0.244,0.745-0.489,1-0.73v6.755h1.058v-8.676h-0.684C43.121,89.218,42.809,89.604,42.368,90z"/>
	<path fill="#242054" d="M17.504,90.355c-0.229-0.353-0.513-0.622-0.864-0.812c-0.349-0.183-0.753-0.279-1.215-0.279
		c-0.624,0-1.147,0.171-1.559,0.507c-0.414,0.339-0.721,0.822-0.933,1.438c-0.208,0.628-0.314,1.446-0.314,2.469
		c0,1.623,0.284,2.792,0.851,3.512c0.472,0.594,1.123,0.894,1.955,0.894c0.629,0,1.151-0.169,1.567-0.511
		c0.408-0.334,0.72-0.821,0.931-1.441c0.207-0.619,0.312-1.442,0.312-2.453c0-0.854-0.064-1.538-0.193-2.042
		C17.908,91.129,17.729,90.706,17.504,90.355z M16.648,96.51c-0.331,0.469-0.737,0.703-1.223,0.703
		c-0.485,0-0.892-0.234-1.224-0.703c-0.332-0.472-0.492-1.411-0.492-2.828c0-1.419,0.177-2.391,0.541-2.917
		c0.29-0.415,0.68-0.616,1.164-0.616c0.495,0,0.905,0.228,1.236,0.698c0.333,0.464,0.496,1.412,0.496,2.835
		C17.145,95.092,16.981,96.036,16.648,96.51z"/>
	<path fill="#242054" d="M21.666,90.421c-0.442,0.396-0.959,0.734-1.549,1.016v1.021c0.327-0.12,0.7-0.3,1.112-0.544
		c0.413-0.242,0.747-0.486,0.999-0.729v6.755h1.057v-8.675h-0.682C22.421,89.643,22.106,90.022,21.666,90.421z"/>
	<path fill="#242054" d="M27.461,90.421c-0.443,0.396-0.959,0.734-1.549,1.016v1.021c0.325-0.12,0.7-0.3,1.112-0.544
		c0.413-0.242,0.749-0.486,0.999-0.729v6.755h1.058v-8.675H28.4C28.216,89.643,27.902,90.022,27.461,90.421z"/>
	<path fill="#242054" d="M36.67,90.355c-0.229-0.353-0.513-0.622-0.864-0.812c-0.349-0.183-0.752-0.279-1.213-0.279
		c-0.626,0-1.149,0.171-1.561,0.507c-0.414,0.339-0.721,0.822-0.933,1.438c-0.208,0.628-0.312,1.446-0.312,2.469
		c0,1.623,0.282,2.792,0.85,3.512c0.473,0.594,1.125,0.894,1.957,0.894c0.627,0,1.149-0.169,1.562-0.511
		c0.413-0.334,0.721-0.821,0.931-1.441c0.207-0.619,0.315-1.442,0.315-2.453c0-0.854-0.067-1.538-0.198-2.042
		C37.077,91.129,36.9,90.706,36.67,90.355z M35.815,96.51c-0.331,0.469-0.738,0.703-1.222,0.703c-0.488,0-0.894-0.234-1.228-0.703
		c-0.332-0.472-0.493-1.411-0.493-2.828c0-1.419,0.183-2.391,0.542-2.917c0.293-0.415,0.679-0.616,1.163-0.616
		c0.495,0,0.906,0.228,1.237,0.698c0.332,0.464,0.497,1.412,0.497,2.835C36.313,95.092,36.15,96.036,35.815,96.51z"/>
</g>
</svg>
