<?xml version="1.0" encoding="utf-8"?>
<!-- Generator: Adobe Illustrator 15.0.0, SVG Export Plug-In . SVG Version: 6.00 Build 0)  -->
<!DOCTYPE svg PUBLIC "-//W3C//DTD SVG 1.1//EN" "http://www.w3.org/Graphics/SVG/1.1/DTD/svg11.dtd">
<svg version="1.1" id="Layer_1" xmlns="http://www.w3.org/2000/svg" xmlns:xlink="http://www.w3.org/1999/xlink" x="0px" y="0px"
	 width="100px" height="100px" viewBox="0 0 100 100" enable-background="new 0 0 100 100" xml:space="preserve">
<path fill="#0DB14B" d="M73.807,38.15c0,11.85-11.902,23.514-11.902,35.549H38.097c0-11.664-11.903-23.699-11.903-35.549
	C26.193,25.062,36.853,14.451,50,14.451C63.146,14.451,73.807,25.062,73.807,38.15z M58.928,85.55H41.071
	c-1.646,0-2.976,1.324-2.976,2.961c0,1.638,1.33,2.964,2.976,2.964h0.546c1.229,3.451,4.499,5.926,8.382,5.926
	c3.884,0,7.155-2.475,8.382-5.926h0.547c1.646,0,2.977-1.326,2.977-2.964C61.904,86.874,60.572,85.55,58.928,85.55z"/>
<path fill="#241F55" d="M58.928,76.663H41.071c-1.646,0-2.976,1.323-2.976,2.962s1.33,2.962,2.976,2.962h17.854
	c1.646,0,2.978-1.323,2.978-2.962S60.572,76.663,58.928,76.663z M17.584,22.944l5.342,3.066c0.825-1.817,1.831-3.519,2.993-5.122
	l-5.357-3.083L17.584,22.944z M52.977,8.826V2.6h-5.952v6.227C48.018,8.723,48.977,8.526,50,8.526
	C51.023,8.526,51.98,8.723,52.977,8.826z M37.807,11.198l-3.081-5.317l-5.161,2.962l3.098,5.335
	C34.271,13.021,35.98,12.021,37.807,11.198z M82.414,22.944l-2.977-5.139l-5.357,3.083c1.162,1.604,2.174,3.305,2.998,5.122
	L82.414,22.944z M70.43,8.844l-5.15-2.962L62.2,11.199c1.817,0.821,3.532,1.822,5.139,2.974L70.43,8.844z M20.24,38.15
	c0-1.018,0.198-1.973,0.303-2.963h-6.254v5.924h6.267C20.438,40.129,20.24,39.157,20.24,38.15z M79.455,35.188
	c0.105,0.989,0.303,1.944,0.303,2.962c0,1.008-0.197,1.979-0.312,2.964h6.267v-5.925L79.455,35.188L79.455,35.188z M74.568,55.688
	l4.871,2.803l2.975-5.135l-5.406-3.103C76.26,52.094,75.445,53.9,74.568,55.688z M17.584,53.355l2.978,5.134l4.83-2.773
	c-0.872-1.793-1.687-3.61-2.425-5.449L17.584,53.355z"/>
<g id="Layer_2" display="none">
	<path display="inline" fill="none" stroke="#000000" stroke-miterlimit="10" d="M38.097,73.807L38.097,73.807
		c0-11.718-11.903-23.808-11.903-35.709C26.192,24.949,36.853,14.29,50,14.29c13.146,0,23.807,10.659,23.807,23.806
		c0,11.903-11.902,23.621-11.902,35.71 M38.097,73.807c0.06,1.646,2.381,17.172,2.975,17.856c0,0,5.045,5.951,8.928,5.951
		s8.928-5.951,8.928-5.951s2.977-16.211,2.977-17.856"/>
</g>
</svg>
