<?xml version="1.0" encoding="utf-8"?>
<!-- Generator: Adobe Illustrator 15.0.0, SVG Export Plug-In . SVG Version: 6.00 Build 0)  -->
<!DOCTYPE svg PUBLIC "-//W3C//DTD SVG 1.1//EN" "http://www.w3.org/Graphics/SVG/1.1/DTD/svg11.dtd">
<svg version="1.1" id="Layer_1" xmlns="http://www.w3.org/2000/svg" xmlns:xlink="http://www.w3.org/1999/xlink" x="0px" y="0px"
	 width="400px" height="10px" viewBox="0 0 400 10" enable-background="new 0 0 400 10" xml:space="preserve">
<path fill="none" stroke="#ffffff" stroke-width="0.25" stroke-miterlimit="10" d="M400,5H220"/>
<path fill="none" stroke="#ffffff" stroke-width="0.25" stroke-miterlimit="10" d="M0,5h180"/>
<g>
	<path fill="none" stroke="#ffffff" stroke-width="0.25" stroke-miterlimit="10" d="M195.336,5c0-2.579,2.087-4.672,4.663-4.672
		c2.577,0,4.665,2.093,4.665,4.672c0,2.578-2.088,4.671-4.665,4.671C197.424,9.672,195.336,7.578,195.336,5z"/>
	<path fill="#ffffff" d="M197.017,6.318c0-0.709,0.574-1.283,1.28-1.283c0.707,0,1.28,0.574,1.28,1.283
		c0,0.707-0.573,1.281-1.28,1.281C197.591,7.6,197.017,7.025,197.017,6.318z"/>
</g>
</svg>
