<?xml version="1.0" encoding="utf-8"?>
<!-- Generator: Adobe Illustrator 15.0.0, SVG Export Plug-In . SVG Version: 6.00 Build 0)  -->
<!DOCTYPE svg PUBLIC "-//W3C//DTD SVG 1.1//EN" "http://www.w3.org/Graphics/SVG/1.1/DTD/svg11.dtd">
<svg version="1.1" xmlns="http://www.w3.org/2000/svg" xmlns:xlink="http://www.w3.org/1999/xlink" x="0px" y="0px" width="100px"
	 height="100px" viewBox="0 0 100 100" enable-background="new 0 0 100 100" xml:space="preserve">
<g id="Layer_2">
		<path fill="#0DB14B" d="M89.303,47.351c0,0.883,0.438,2.207,0.438,3.091c0,9.715-7.945,17.662-17.662,17.662h-44.16V50
			L1.424,72.079l26.495,22.08V76.496h44.159c14.574,0,26.498-11.924,26.498-26.496c0-3.092-0.441-6.181-1.768-8.832L89.303,47.351z"
			/>
		<path fill="#241F55" d="M3.19,58.832C1.867,56.184,1.424,53.092,1.424,50c0-14.571,11.923-26.496,26.495-26.496h44.159V5.841
			L98.574,27.92L72.078,50V32.337h-44.16c-9.715,0-17.664,7.947-17.664,17.663c0,0.884,0,1.766,0.442,2.648L3.19,58.832z"/>
</g>
<g id="Layer_1" display="none">
		<path fill="none" stroke="#000000" stroke-miterlimit="10" d="M72.078,68.104"/>
		<path fill="none" stroke="#000000" stroke-miterlimit="10" d="M89.741,50.442"/>
		<path fill="none" stroke="#000000" stroke-miterlimit="10" d="M89.303,47.351"/>
		<path fill="none" stroke="#000000" stroke-miterlimit="10" d="M1.425,72.079l26.495,22.08V76.496h44.159
			c14.573,0,26.497-11.924,26.497-26.496c0-3.092-0.44-6.181-1.768-8.832"/>
		<path fill="none" stroke="#000000" stroke-miterlimit="10" d="M10.255,50"/>
		<path fill="none" stroke="#000000" stroke-miterlimit="10" d="M3.191,58.832C1.867,56.184,1.425,53.092,1.425,50
			c0-14.571,11.923-26.496,26.495-26.496h44.159V5.841L98.575,27.92"/>
</g>
</svg>
