<?xml version="1.0" encoding="utf-8"?>
<!-- Generator: Adobe Illustrator 15.0.0, SVG Export Plug-In . SVG Version: 6.00 Build 0)  -->
<!DOCTYPE svg PUBLIC "-//W3C//DTD SVG 1.1//EN" "http://www.w3.org/Graphics/SVG/1.1/DTD/svg11.dtd">
<svg version="1.1" id="Layer_1" xmlns="http://www.w3.org/2000/svg" xmlns:xlink="http://www.w3.org/1999/xlink" x="0px" y="0px"
	 width="100px" height="100px" viewBox="0 0 100 100" enable-background="new 0 0 100 100" xml:space="preserve">
<path display="none" fill="none" stroke="#000000" stroke-miterlimit="10" d="M97.59,50c0,2.01-0.162,3.986-0.404,5.932
	c-0.061,0.476-0.143,0.945-0.221,1.416c-0.254,1.629-0.584,3.24-0.998,4.816c-0.078,0.279-0.141,0.566-0.215,0.842
	c-1.131,3.936-2.744,7.68-4.789,11.135c-4.094,6.937-9.887,12.729-16.822,16.822c-3.455,2.045-7.199,3.652-11.135,4.789
	c-0.275,0.074-0.562,0.137-0.842,0.215c-1.576,0.414-3.184,0.744-4.816,0.998c-0.471,0.078-0.94,0.16-1.416,0.221
	C53.986,97.428,52.01,97.59,50,97.59l0,0l0,0c-2.011,0-3.985-0.162-5.932-0.404c-0.481-0.061-0.945-0.143-1.42-0.221
	c-1.63-0.254-3.242-0.584-4.82-0.998c-0.273-0.078-0.558-0.141-0.833-0.215c-3.943-1.131-7.68-2.744-11.135-4.789
	c-6.936-4.094-12.73-9.887-16.829-16.822c-2.04-3.455-3.652-7.199-4.783-11.135c-0.077-0.275-0.143-0.562-0.214-0.842
	c-0.416-1.576-0.744-3.184-0.999-4.816c-0.071-0.471-0.155-0.94-0.22-1.416C2.571,53.986,2.411,52.01,2.411,50l0,0l0,0
	c0-2.011,0.161-3.985,0.405-5.932c0.059-0.481,0.143-0.945,0.22-1.421c0.255-1.63,0.583-3.241,1.005-4.819
	c0.071-0.273,0.138-0.559,0.215-0.833c1.13-3.938,2.742-7.68,4.782-11.135c4.099-6.937,9.893-12.73,16.829-16.829
	c3.45-2.034,7.192-3.646,11.129-4.776c0.274-0.077,0.56-0.144,0.833-0.215c1.578-0.422,3.19-0.744,4.82-1.005
	c0.476-0.071,0.939-0.155,1.42-0.22C46.015,2.571,47.989,2.41,50,2.41l0,0l0,0c2.01,0,3.986,0.161,5.932,0.405
	c0.476,0.059,0.945,0.143,1.416,0.22c1.629,0.255,3.24,0.583,4.816,1.005c0.279,0.071,0.566,0.138,0.842,0.215
	c3.936,1.13,7.68,2.742,11.135,4.782c6.937,4.099,12.729,9.893,16.822,16.829c2.045,3.455,3.652,7.191,4.789,11.135
	c0.074,0.274,0.137,0.56,0.215,0.834c0.414,1.577,0.744,3.188,0.998,4.817c0.078,0.477,0.16,0.94,0.221,1.423
	C97.428,46.015,97.59,47.989,97.59,50L97.59,50L97.59,50z M72.916,43.915L72.916,43.915c-2.186-8.222-8.604-14.641-16.824-16.83l0,0
	l0,0c-0.791-0.208-1.588-0.381-2.408-0.511C52.48,26.36,51.266,26.205,50,26.205c-1.267,0-2.48,0.155-3.688,0.369
	c-0.815,0.13-1.612,0.303-2.397,0.511l0,0l0,0c-8.221,2.189-14.641,8.608-16.83,16.83l0,0l0,0c-0.208,0.785-0.381,1.582-0.511,2.396
	C26.36,47.52,26.205,48.732,26.205,50c0,1.266,0.155,2.48,0.369,3.684c0.125,0.82,0.303,1.611,0.511,2.4l0,0l0,0
	c2.183,8.223,8.608,14.641,16.83,16.824l0,0l0,0c0.785,0.209,1.582,0.381,2.397,0.51c1.208,0.223,2.421,0.377,3.688,0.377
	c1.266,0,2.48-0.154,3.684-0.369c0.82-0.125,1.611-0.303,2.4-0.51l0,0l0,0c8.223-2.186,14.641-8.604,16.824-16.824l0,0l0,0
	c0.209-0.791,0.381-1.588,0.51-2.404c0.223-1.207,0.377-2.422,0.377-3.688c0-1.268-0.154-2.48-0.369-3.688
	C73.295,45.497,73.123,44.7,72.916,43.915L72.916,43.915z"/>
<path fill="#242054" d="M97.038,50.127c0,1.991-0.159,3.95-0.399,5.879c-0.062,0.471-0.142,0.938-0.22,1.402
	c-0.252,1.615-0.578,3.212-0.989,4.773c-0.076,0.277-0.139,0.562-0.213,0.834c-1.119,3.9-2.719,7.611-4.746,11.036
	c-4.058,6.872-9.799,12.613-16.672,16.671c-3.425,2.027-7.136,3.621-11.035,4.748c-0.272,0.073-0.558,0.135-0.834,0.211
	c-1.562,0.411-3.156,0.738-4.773,0.99c-0.467,0.077-0.934,0.157-1.403,0.219c-1.928,0.24-3.888,0.4-5.879,0.4l0,0l0,0
	c-1.993,0-3.95-0.16-5.878-0.4c-0.477-0.062-0.937-0.142-1.408-0.219c-1.615-0.252-3.212-0.579-4.776-0.99
	c-0.271-0.076-0.553-0.138-0.826-0.211c-3.908-1.121-7.61-2.721-11.035-4.748c-6.875-4.058-12.617-9.799-16.679-16.671
	c-2.021-3.425-3.619-7.136-4.74-11.036c-0.076-0.271-0.141-0.557-0.212-0.834c-0.413-1.562-0.738-3.154-0.99-4.773
	c-0.071-0.467-0.154-0.934-0.218-1.402c-0.242-1.929-0.401-3.888-0.401-5.879l0,0l0,0c0-1.993,0.159-3.95,0.401-5.879
	c0.059-0.477,0.141-0.936,0.218-1.408c0.252-1.615,0.578-3.212,0.996-4.776c0.07-0.271,0.136-0.553,0.212-0.826
	c1.121-3.902,2.718-7.61,4.74-11.035c4.062-6.875,9.805-12.617,16.679-16.679c3.419-2.016,7.127-3.613,11.029-4.734
	c0.273-0.076,0.555-0.142,0.826-0.212c1.564-0.418,3.162-0.738,4.776-0.996c0.472-0.071,0.932-0.154,1.408-0.218
	c1.929-0.242,3.886-0.401,5.878-0.401l0,0l0,0c1.991,0,3.951,0.159,5.879,0.401c0.472,0.059,0.937,0.141,1.403,0.218
	c1.613,0.252,3.212,0.578,4.773,0.996c0.276,0.07,0.562,0.136,0.834,0.212c3.899,1.121,7.61,2.718,11.035,4.74
	c6.873,4.062,12.614,9.805,16.672,16.679c2.027,3.425,3.62,7.127,4.746,11.035c0.074,0.273,0.137,0.555,0.213,0.827
	c0.411,1.562,0.737,3.16,0.989,4.774c0.078,0.473,0.158,0.933,0.22,1.411C96.879,46.177,97.038,48.134,97.038,50.127L97.038,50.127
	L97.038,50.127z M22.477,39.408l-8.766-8.771c-3.149,5.83-5.105,12.398-5.105,19.491s1.956,13.66,5.105,19.489l8.766-8.766
	c-1.303-3.332-2.081-6.93-2.081-10.725C20.396,46.336,21.173,42.74,22.477,39.408z M49.873,91.396c7.093,0,13.66-1.951,19.49-5.101
	l-8.766-8.771c-3.332,1.3-6.93,2.08-10.726,2.08c-3.791,0-7.387-0.78-10.719-2.088l-8.771,8.773
	C36.212,89.443,42.781,91.396,49.873,91.396z M49.873,8.858c-7.092,0-13.661,1.956-19.49,5.105l8.771,8.766
	c3.332-1.303,6.928-2.081,10.719-2.081c3.796,0,7.395,0.778,10.719,2.081l8.766-8.766C63.533,10.814,56.966,8.858,49.873,8.858z
	 M72.585,44.096L72.585,44.096c-2.166-8.147-8.526-14.51-16.674-16.679l0,0l0,0c-0.783-0.207-1.574-0.378-2.388-0.507
	c-1.191-0.212-2.396-0.366-3.65-0.366c-1.255,0-2.458,0.154-3.655,0.366c-0.808,0.128-1.597,0.3-2.375,0.507l0,0l0,0
	c-8.147,2.169-14.51,8.532-16.679,16.679l0,0l0,0c-0.207,0.778-0.378,1.568-0.507,2.375c-0.212,1.197-0.366,2.399-0.366,3.655
	c0,1.254,0.154,2.459,0.366,3.651c0.123,0.812,0.3,1.597,0.507,2.377l0,0l0,0c2.164,8.15,8.532,14.512,16.679,16.676l0,0l0,0
	c0.778,0.206,1.568,0.377,2.375,0.504c1.197,0.223,2.399,0.374,3.655,0.374c1.254,0,2.459-0.151,3.65-0.366
	c0.812-0.123,1.599-0.3,2.379-0.504l0,0l0,0c8.149-2.166,14.511-8.527,16.675-16.675l0,0l0,0c0.207-0.783,0.378-1.573,0.505-2.382
	c0.223-1.196,0.373-2.401,0.373-3.655c0-1.256-0.15-2.458-0.365-3.655C72.961,45.664,72.79,44.875,72.585,44.096L72.585,44.096z
	 M86.042,30.636l-8.771,8.771c1.301,3.332,2.08,6.928,2.08,10.719c0,3.795-0.779,7.394-2.088,10.718l8.773,8.768
	c3.152-5.824,5.104-12.394,5.104-19.484C91.143,43.035,89.189,36.466,86.042,30.636z"/>
</svg>
